<svg width="856" height="393" viewBox="0 0 856 393" fill="none" xmlns="http://www.w3.org/2000/svg">
<path d="M95.9362 0H0V173.255H43.5341V117.305H95.13C135.171 117.305 157.744 93.7902 157.744 58.3824C157.744 21.0825 133.021 0 95.9362 0ZM87.8743 80.0055H43.5341V37.8404H87.8743C105.073 37.8404 111.791 46.2194 111.791 58.923C111.791 74.0592 102.117 80.0055 87.8743 80.0055Z" fill="#020202"/>
<path d="M223.435 133.793V103.791H290.349V67.3019H223.435V39.4622H325.284V0H179.901V173.255H328.508V133.793H223.435Z" fill="#020202"/>
<path d="M342.411 39.4622H405.562V173.255H449.096V39.4622H512.248V0H342.411V39.4622Z" fill="#020202"/>
<path d="M171.986 216.231H119.047L74.9753 284.344H43.5341V216.231H0V389.486H43.5341V321.644H74.9753L119.047 389.486H171.986L112.329 302.994L171.986 216.231Z" fill="#020202"/>
<path d="M190.399 389.486H233.395V295.426L342.23 389.486H366.416V216.231H323.419V314.616L214.584 216.231H190.399V389.486Z" fill="#020202"/>
<path d="M390.518 302.994C390.518 356.781 429.752 393 485.916 393C542.349 393 581.584 356.781 581.584 302.994C581.584 249.206 542.349 212.988 485.916 212.988C429.752 212.988 390.518 249.206 390.518 302.994ZM436.47 302.994C436.47 273.532 456.356 253.531 485.916 253.531C515.745 253.531 535.631 273.532 535.631 302.994C535.631 332.455 515.745 352.457 485.916 352.457C456.356 352.457 436.47 332.455 436.47 302.994Z" fill="#020202"/>
<path d="M577.328 216.231L650.691 389.486H674.071L715.992 300.832L758.183 389.486H782.637L856 216.231H805.479L768.126 310.562L728.623 216.231H706.318L666.277 310.562L629.999 216.231H577.328Z" fill="#020202"/>
</svg>
