<svg width="262" height="120" viewBox="0 0 262 120" fill="none" xmlns="http://www.w3.org/2000/svg">
<path d="M29.2935 0H0V52.9023H13.2928V35.8184H29.0473C41.2735 35.8184 48.1661 28.6382 48.1661 17.8267C48.1661 6.43742 40.617 0 29.2935 0ZM26.8319 24.4292H13.2928V11.5543H26.8319C32.0834 11.5543 34.1347 14.1128 34.1347 17.9917C34.1347 22.6135 31.1808 24.4292 26.8319 24.4292Z" fill="#020202"/>
<path d="M68.2246 40.8528V31.6919H88.6562V20.5502H68.2246V12.0495H99.3233V0H54.9317V52.9023H100.308V40.8528H68.2246Z" fill="#020202"/>
<path d="M104.553 12.0495H123.836V52.9023H137.129V12.0495H156.411V0H104.553V12.0495Z" fill="#020202"/>
<path d="M52.515 66.0248H36.3502L22.8932 86.8226H13.2928V66.0248H0V118.927H13.2928V98.2118H22.8932L36.3502 118.927H52.515L34.2988 92.5172L52.515 66.0248Z" fill="#020202"/>
<path d="M58.137 118.927H71.2657V90.2063L104.498 118.927H111.883V66.0248H98.754V96.066L65.5219 66.0248H58.137V118.927Z" fill="#020202"/>
<path d="M119.242 92.5172C119.242 108.941 131.222 120 148.371 120C165.603 120 177.583 108.941 177.583 92.5172C177.583 76.0935 165.603 65.0344 148.371 65.0344C131.222 65.0344 119.242 76.0935 119.242 92.5172ZM133.273 92.5172C133.273 83.5213 139.345 77.414 148.371 77.414C157.479 77.414 163.551 83.5213 163.551 92.5172C163.551 101.513 157.479 107.62 148.371 107.62C139.345 107.62 133.273 101.513 133.273 92.5172Z" fill="#020202"/>
<path d="M176.283 66.0248L198.684 118.927H205.823L218.624 91.857L231.506 118.927H238.973L261.374 66.0248H245.948L234.542 94.8281L222.48 66.0248H215.67L203.444 94.8281L192.366 66.0248H176.283Z" fill="#020202"/>
</svg>
