<svg width="140" height="64" viewBox="0 0 140 64" fill="none" xmlns="http://www.w3.org/2000/svg">
<path d="M15.6497 0H0V28.2146H7.10157V19.1032H15.5182C22.0499 19.1032 25.7322 15.2737 25.7322 9.50757C25.7322 3.43329 21.6992 0 15.6497 0ZM14.3346 13.0289H7.10157V6.16231H14.3346C17.1402 6.16231 18.2361 7.52682 18.2361 9.5956C18.2361 12.0605 16.658 13.0289 14.3346 13.0289Z" fill="#020202"/>
<path d="M36.4483 21.7882V16.9023H47.3636V10.9601H36.4483V6.42641H53.0624V0H29.3467V28.2146H53.5885V21.7882H36.4483Z" fill="#020202"/>
<path d="M55.8563 6.42641H66.158V28.2146H73.2595V6.42641H83.5612V0H55.8563V6.42641Z" fill="#020202"/>
<path d="M28.0556 35.2132H19.4197L12.2305 46.3054H7.10157V35.2132H0V63.4278H7.10157V52.3796H12.2305L19.4197 63.4278H28.0556L18.3238 49.3425L28.0556 35.2132Z" fill="#020202"/>
<path d="M31.0591 63.4278H38.073V48.11L55.8269 63.4278H59.7722V35.2132H52.7583V51.2352L35.0044 35.2132H31.0591V63.4278Z" fill="#020202"/>
<path d="M63.7038 49.3425C63.7038 58.1018 70.104 64 79.2659 64C88.4716 64 94.8718 58.1018 94.8718 49.3425C94.8718 40.5832 88.4716 34.685 79.2659 34.685C70.104 34.685 63.7038 40.5832 63.7038 49.3425ZM71.1999 49.3425C71.1999 44.5447 74.4438 41.2875 79.2659 41.2875C84.1318 41.2875 87.3757 44.5447 87.3757 49.3425C87.3757 54.1403 84.1318 57.3975 79.2659 57.3975C74.4438 57.3975 71.1999 54.1403 71.1999 49.3425Z" fill="#020202"/>
<path d="M94.1776 35.2132L106.145 63.4278H109.959L116.797 48.9904L123.68 63.4278H127.669L139.636 35.2132H131.395L125.302 50.575L118.858 35.2132H115.219L108.688 50.575L102.77 35.2132H94.1776Z" fill="#020202"/>
</svg>
