<svg width="88" height="40" viewBox="0 0 88 40" fill="none" xmlns="http://www.w3.org/2000/svg">
<path d="M9.78109 0H0V17.6341H4.43848V11.9395H9.6989C13.7812 11.9395 16.0826 9.54608 16.0826 5.94223C16.0826 2.14581 13.562 0 9.78109 0ZM8.95915 8.14305H4.43848V3.85144H8.95915C10.7126 3.85144 11.3976 4.70426 11.3976 5.99725C11.3976 7.53783 10.4112 8.14305 8.95915 8.14305Z" fill="#020202"/>
<path d="M22.7802 13.6176V10.564H29.6023V6.85007H22.7802V4.01651H33.164V0H18.3417V17.6341H33.4928V13.6176H22.7802Z" fill="#020202"/>
<path d="M34.9102 4.01651H41.3487V17.6341H45.7872V4.01651H52.2257V0H34.9102V4.01651Z" fill="#020202"/>
<path d="M17.5347 22.0083H12.1373L7.64405 28.9409H4.43848V22.0083H0V39.6424H4.43848V32.7373H7.64405L12.1373 39.6424H17.5347L11.4524 30.8391L17.5347 22.0083Z" fill="#020202"/>
<path d="M19.4119 39.6424H23.7956V30.0688L34.8918 39.6424H37.3576V22.0083H32.9739V32.022L21.8777 22.0083H19.4119V39.6424Z" fill="#020202"/>
<path d="M39.8149 30.8391C39.8149 36.3136 43.815 40 49.5412 40C55.2948 40 59.2949 36.3136 59.2949 30.8391C59.2949 25.3645 55.2948 21.6781 49.5412 21.6781C43.815 21.6781 39.8149 25.3645 39.8149 30.8391ZM44.4999 30.8391C44.4999 27.8404 46.5274 25.8047 49.5412 25.8047C52.5824 25.8047 54.6098 27.8404 54.6098 30.8391C54.6098 33.8377 52.5824 35.8735 49.5412 35.8735C46.5274 35.8735 44.4999 33.8377 44.4999 30.8391Z" fill="#020202"/>
<path d="M58.861 22.0083L66.3406 39.6424H68.7243L72.9984 30.619L77.2999 39.6424H79.7931L87.2727 22.0083H82.1219L78.3136 31.6094L74.2861 22.0083H72.012L67.9297 31.6094L64.231 22.0083H58.861Z" fill="#020202"/>
</svg>
